<svg width="360" height="100" viewBox="0 0 360 100" fill="none" xmlns="http://www.w3.org/2000/svg">
  <title>Momenty</title>
  <desc>Logo Momenty z pastelową paletą barw i symbolem dłoni w literze o.</desc>
  <rect x="78" y="18" width="64" height="64" rx="18" fill="#7EC7BB"/>
  <path d="M102 70c9-10 5-24 12-29.5 3-2.4 6-1 7 .8 1.5 3-1 6 1.2 8.7 3.3 3.8 9.8-2 14.8-.8 2.7.7 4 4.7 2 7.7-5.3 7.4-16 13-24.8 13-4.4 0-8.4-.6-12.2-.4Z" fill="#F8C89B"/>
  <path d="M111 40c2.5-7.5 9-12 15.5-12 5.8 0 10.5 3.6 12.3 9.2.8 2.5-.2 4.7-2.8 4.7-3.4 0-8-4.1-13.2-3-4 .8-7.8 3.7-11.8 1Z" fill="#F26D6F" opacity="0.65"/>
  <g fill="#F26D6F" font-family="'Nunito', 'Segoe UI', sans-serif" font-weight="700" font-size="72" letter-spacing="-.02em">
    <text x="0" y="72">m</text>
    <text x="60" y="72">m</text>
    <text x="146" y="72">m</text>
    <text x="204" y="72">e</text>
    <text x="250" y="72">n</text>
    <text x="298" y="72">t</text>
    <text x="328" y="72">y</text>
  </g>
  <text x="118" y="72" fill="#F26D6F" font-family="'Nunito', 'Segoe UI', sans-serif" font-weight="700" font-size="72" letter-spacing="-.02em">o</text>
</svg>
